# File created by Blade
# Date/Time:  Wed Jan 21 17:10:37 2015
# Frame Rate: 120.000 fps
#------------------------------------------------------
:FULLY-SPECIFIED
:DEGREES
1088
root 19.319543 3.402171 -11.840046 -232.371350 3.633521 -178.545446
Spine 67.394151 1.458353 5.473452
Head 17.659144 -0.011040 5.359706
LeftShoulder -10.880081 -11.471051 9.818227
LeftArm -34.404926 43.990900 -81.630507
LeftForeArm 27.220531 0.000000 90.263078
LeftHand -19.449099 -0.000000 -8.099447
LeftHandThumb1 -26.253704 0.000000 33.147579
RightShoulder -10.058696 -24.333249 -3.863823
RightArm 10.852516 -26.705837 50.282694
RightForeArm -45.020672 -0.000000 92.524592
RightHand -14.960712 -0.000000 17.898484
RightHandThumb1 -24.326973 -0.000000 -32.862282
LeftUpLeg -39.369888 20.045137 1.728691
LeftLeg 2.443177 -0.000000 -0.000000
LeftFoot 23.798345 32.239348 4.560593
LeftToeBase 17.560068 -0.000000 -0.000000
RightUpLeg -99.902475 -1.138700 6.540756
RightLeg 141.378427 -0.000000 -0.000000
RightFoot -6.421792 -30.366248 -3.754603
RightToeBase 5.693459 -0.000000 -0.000000
1089
root 19.334253 3.408147 -11.864062 -232.203080 3.576399 -178.558226
Spine 67.439097 1.464071 5.370599
Head 17.905470 0.093618 5.348366
LeftShoulder -10.797163 -11.521668 9.879803
LeftArm -34.254897 44.306801 -82.613809
LeftForeArm 26.042308 -0.000000 87.967371
LeftHand -19.484819 -0.000000 -6.995372
LeftHandThumb1 -26.253704 0.000000 33.147579
RightShoulder -9.986113 -24.353219 -4.030803
RightArm 11.165855 -27.718522 50.665488
RightForeArm -45.088077 -0.000000 91.707842
RightHand -14.959173 -0.000000 17.226212
RightHandThumb1 -24.326973 -0.000000 -32.862282
LeftUpLeg -39.491696 19.758287 1.838245
LeftLeg 2.519533 -0.000000 -0.000000
LeftFoot 24.001938 32.215114 4.745975
LeftToeBase 17.514373 -0.000000 -0.000000
RightUpLeg -99.989211 -0.926076 6.572520
RightLeg 141.431255 -0.000000 -0.000000
RightFoot -6.560921 -30.396854 -3.907400
RightToeBase 5.438290 -0.000000 -0.000000
1090
root 19.340440 3.413240 -11.887165 -232.014633 3.483400 -178.553509
Spine 67.443433 1.447958 5.363402
Head 18.118228 0.061402 5.256430
LeftShoulder -10.582514 -11.633801 9.895002
LeftArm -34.034606 44.717119 -83.634545
LeftForeArm 24.856579 -0.000000 85.388433
LeftHand -19.425974 0.000000 -5.543732
LeftHandThumb1 -26.253704 0.000000 33.147579
RightShoulder -9.935743 -24.304500 -4.229149
RightArm 11.409879 -28.736004 51.061016
RightForeArm -45.508051 -0.000000 90.843156
RightHand -14.989764 -0.000000 16.079935
RightHandThumb1 -24.326973 -0.000000 -32.862282
LeftUpLeg -39.610112 19.354006 1.969272
LeftLeg 2.593441 -0.000000 -0.000000
LeftFoot 24.200262 32.181743 4.929334
LeftToeBase 17.473553 -0.000000 -0.000000
RightUpLeg -100.116040 -0.787508 6.578536
RightLeg 141.530654 -0.000000 -0.000000
RightFoot -6.731307 -30.429068 -4.007271
RightToeBase 5.233672 -0.000000 -0.000000
1091
root 19.355419 3.420828 -11.911932 -231.857562 3.458072 -178.499210
Spine 67.474119 1.400613 5.384032
Head 18.284125 0.070975 5.133787
LeftShoulder -10.428671 -11.743234 9.960374
LeftArm -33.623122 45.215215 -84.642276
LeftForeArm 23.686194 -0.000000 82.548876
LeftHand -19.283977 -0.000000 -4.325006
LeftHandThumb1 -26.253704 0.000000 33.147579
RightShoulder -9.738046 -24.206621 -4.493597
RightArm 11.591175 -29.699568 51.447208
RightForeArm -45.991472 -0.000000 90.000546
RightHand -15.272696 -0.000000 15.438757
RightHandThumb1 -24.326973 -0.000000 -32.862282
LeftUpLeg -39.737563 18.992056 2.179079
LeftLeg 2.744455 -0.000000 -0.000000
LeftFoot 24.396603 31.994807 5.234128
LeftToeBase 17.365183 -0.000000 -0.000000
RightUpLeg -100.207742 -0.616868 6.656777
RightLeg 141.647563 -0.000000 -0.000000
RightFoot -6.950025 -30.465459 -3.872401
RightToeBase 4.521118 -0.000000 -0.000000
1092
root 19.369046 3.427155 -11.937080 -231.724496 3.363774 -178.507785
Spine 67.517844 1.351392 5.176716
Head 18.418559 0.283709 5.083163
LeftShoulder -10.374378 -11.973872 10.168797
LeftArm -33.398915 45.782741 -85.908112
LeftForeArm 23.448470 -0.000000 79.543261
LeftHand -18.617189 -0.000000 -2.980849
LeftHandThumb1 -26.253704 0.000000 33.147579
RightShoulder -9.354748 -24.104444 -4.826930
RightArm 11.841610 -30.569666 51.841522
RightForeArm -46.336894 -0.000000 89.091518
RightHand -15.165350 -0.000000 14.553278
RightHandThumb1 -24.326973 -0.000000 -32.862282
LeftUpLeg -39.813582 18.525809 2.383838
LeftLeg 2.887282 -0.000000 -0.000000
LeftFoot 24.590443 31.944949 5.382474
LeftToeBase 17.319316 -0.000000 -0.000000
RightUpLeg -100.299854 -0.434255 6.621411
RightLeg 141.779525 -0.000000 -0.000000
RightFoot -7.230478 -30.550609 -3.803688
RightToeBase 3.930738 -0.000000 -0.000000
1093
root 19.368104 3.421882 -11.972370 -231.494846 3.063952 -178.672718
Spine 67.381168 1.436014 4.802356
Head 18.581254 0.254604 5.099090
LeftShoulder -10.199758 -12.110135 10.394016
LeftArm -33.191820 46.807989 -87.339142
LeftForeArm 24.630332 -0.000000 76.491188
LeftHand -18.478242 -0.000000 -0.682813
LeftHandThumb1 -26.253704 0.000000 33.147579
RightShoulder -9.086944 -24.043300 -5.002673
RightArm 12.100476 -31.410368 52.165864
RightForeArm -46.467437 -0.000000 88.162622
RightHand -15.298236 -0.000000 13.777720
RightHandThumb1 -24.326973 -0.000000 -32.862282
LeftUpLeg -39.948183 17.940452 2.334092
LeftLeg 2.945614 -0.000000 -0.000000
LeftFoot 24.852684 32.058199 5.567129
LeftToeBase 17.268011 -0.000000 -0.000000
RightUpLeg -100.648866 -0.309449 6.245989
RightLeg 142.020999 -0.000000 -0.000000
RightFoot -7.594945 -30.486002 -3.830785
RightToeBase 3.976637 -0.000000 -0.000000
1094
root 19.383054 3.427073 -11.999603 -231.318896 2.990134 -178.709663
Spine 67.336811 1.514308 4.782374
Head 18.680775 0.247528 5.043162
LeftShoulder -9.890004 -12.329876 10.601017
LeftArm -32.778125 47.616300 -88.691328
LeftForeArm 25.467916 -0.000000 73.456988
LeftHand -18.559442 -0.000000 1.305403
LeftHandThumb1 -26.253704 0.000000 33.147579
RightShoulder -8.811666 -23.952832 -5.234557
RightArm 12.331852 -32.153695 52.462275
RightForeArm -46.285097 -0.000000 87.199873
RightHand -15.510164 -0.000000 12.887352
RightHandThumb1 -24.326973 -0.000000 -32.862282
LeftUpLeg -40.082595 17.411561 2.618901
LeftLeg 3.203046 -0.000000 -0.000000
LeftFoot 24.927640 31.832866 5.683916
LeftToeBase 17.152988 -0.000000 -0.000000
RightUpLeg -100.809543 -0.107616 6.178909
RightLeg 142.143639 -0.000000 -0.000000
RightFoot -8.013197 -30.533186 -3.663960
RightToeBase 3.806615 -0.000000 -0.000000
